<?xml version="1.0" encoding="UTF-8"?>
<svg id="Capa_1" xmlns="http://www.w3.org/2000/svg" version="1.1" viewBox="0 0 228.8 106.9">
  <!-- Generator: Adobe Illustrator 30.0.0, SVG Export Plug-In . SVG Version: 2.1.1 Build 123)  -->
  <defs>
    <style>
      .st0 {
        font-family: Aquavit-Regular, Aquavit;
        font-size: 127px;
      }
    </style>
  </defs>
  <text class="st0" transform="translate(-233.9 325.7)"><tspan x="0" y="0">mvbf</tspan></text>
  <g>
    <path d="M82.9,75.5l-2.7-20.4c-1-8-4.3-11.2-8.5-11.2s-7.5,2.7-13.3,9.5l2.9,46h-13.5c.1-1.9,0-9.5-.9-24.1l-1.3-20.2c-.4-8.1-4.3-11.2-8.4-11.2s-7.7,2.8-13.7,10v21.3c0,14.6.1,22.9.4,24.1h-13.2c.3-1.3.4-9.5.4-24.1v-19c0-6.6-.5-12.4-1.4-17.9l12.3-2.5c.6,3.7.9,7.6,1.1,11.6,7.7-8.8,13.6-11.8,19.4-11.8s12.6,4.1,14.9,11.9c7.9-8.8,13.6-11.9,20.1-11.9s13.7,5,15.4,17.1l6.2,46.7h-13.7c0-1.9-.6-9.3-2.5-23.9Z"/>
    <path d="M70.5,38l9.5-1.5c.4,0,.8,0,1.2,0,5.1.3,8,4.6,10.3,10.9l10,43.8,5.5-12.6c3.7-8.9,6.1-14.9,6.1-20.7s-2.8-13.3-8-19.7l13.5-2.8c3.8,5.1,5.7,10.4,5.7,15.9,0,9.7-6.1,18.8-13.3,32.1l-8.5,16.1h-10.9l-10.6-46.1-3.3-8.4-7-7Z"/>
    <path d="M135.3,95v-60.1c0-14.6-.3-22.9-.6-24l13.1-2.5v37.6c5.1-6.9,11.6-10.5,18.4-10.5,12.6,0,22,12.6,22,30.5s-13.2,34.4-31.2,34.4-15.5-2.2-21.6-5.3ZM158.8,95.5c9.7,0,16.9-9.8,16.9-25.4s-6.7-26.4-15.1-26.4-9.4,3.6-12.8,10.3v37.7c3.6,2.4,7.4,3.8,11,3.8Z"/>
    <path d="M185.8,75.1v-33.1l-10.2.4s-12.1-6.7-11.3-6.8c4-.3,21.4,1.1,21.4,1.1v-6.1c0-15.4,8-22,20.3-22s10.4,1,15.7,2.7l-8,11.8c-2.7-3.6-6.9-8.5-11.3-8.5s-6.5,2-6.5,9.8.9,8.1,2,12.4l16.5-.4-2.3,6.3-13.8-.8v33.1c0,14.6.1,22.9.3,24.1h-14.8c1.2-5.1,2-9.5,2-24.1Z"/>
  </g>
  <g>
    <path d="M-152.6,161.3l-2.4-20.4c-.9-6.1-3.3-8.6-6.3-8.6s-6,2.2-10.3,8l2.9,45h-20.2c.1-1.9.1-9.5-.8-24.1l-1.1-20.2c-.3-6.1-3.2-8.6-6.4-8.6s-5.8,2.3-10.4,8.3v20.6c0,14.6.3,22.6.4,24.1h-19.6c.3-1.5.4-9.5.4-24.1v-18.7c0-6.9-.5-13.2-1.7-18.7l18.5-3.6c.5,3.8,1,7.9,1.3,12.1,7.4-9,13.6-12.3,19.8-12.3s13.6,4.6,15.7,12.4c7.4-9.1,13.6-12.4,20.4-12.4s14.6,5.3,16.1,17.4l6,47.9h-20.3c.1-1.9-.4-9.3-2.2-23.9Z"/>
    <path d="M-159.3,123.3l2.9-1.4c1-1.3,1.8-.8,1.9-.8,6.9-3.2,15.1,2,17.9,9.6l14.4,42.8,3.7-9c2.7-7,4.1-11.7,4.1-16.6,0-8.1-3.2-16.4-9.1-24.1l20.1-3.8c3.8,5.3,5.7,11,5.7,16.5,0,10.2-6.4,19.7-15.6,35.2l-8,13.6h-16.3l-21.6-61.8Z"/>
  </g>
</svg>